<svg width="16" height="16" viewBox="0 0 16 16" fill="none" xmlns="http://www.w3.org/2000/svg">
<path fill-rule="evenodd" clip-rule="evenodd" d="M9.77991 7.04347H11.6507C12.6831 7.04347 12.7278 8.01689 12.0203 8.66737L4.59012 15.587C4.10946 16.0167 3.62159 16.1664 3.25717 15.7673C3.00111 15.4869 3.01235 15.0762 3.16956 14.6592L5.60832 8.04967H3.84129C3.17729 8.04967 2.83512 7.45586 3.07834 6.84473L5.69909 0.822248C5.88575 0.352698 6.39631 0 6.89584 0H12.1598C12.8266 0 13.1833 0.604224 12.9045 1.24261L9.77991 7.04347ZM8.08448 8.04967L11.8804 1.00621H6.89584C6.81981 1.00621 6.68207 1.10136 6.64061 1.20495L4.09991 7.04347H7.06335L4.33257 14.4444L11.1989 8.04967H8.08448Z" fill="#5C6970"/>
</svg>
