<svg width="38" height="36" viewBox="0 0 38 36" fill="none" xmlns="http://www.w3.org/2000/svg">
<path opacity="0.6" d="M30.499 9.97587e-07C30.7168 -0.00043197 30.9097 0.140109 30.9762 0.347482L31.2318 1.14548C31.2814 1.29257 31.3643 1.42613 31.4738 1.53582C31.583 1.64522 31.7158 1.72792 31.8619 1.77761L32.6505 2.02653C32.8582 2.09209 32.9996 2.28457 33 2.50238C33.0004 2.72019 32.8598 2.91322 32.6523 2.97957L31.8627 3.23214C31.7163 3.2818 31.5832 3.3646 31.4738 3.47421C31.3643 3.58389 31.2814 3.71744 31.2318 3.86451L30.9795 4.65245C30.9137 4.85817 30.7231 4.99834 30.5071 4.99999C30.2911 5.00163 30.0985 4.86438 30.0295 4.65968L29.7635 3.87036C29.7127 3.72208 29.6285 3.58656 29.5179 3.47584C29.4081 3.36586 29.2749 3.28232 29.1284 3.23142L28.3465 2.9792C28.1403 2.91269 28.0004 2.72096 28 2.50432C27.9996 2.28768 28.1387 2.09541 28.3446 2.02809L29.1385 1.76856C29.2861 1.71819 29.4202 1.63471 29.5307 1.52442C29.6406 1.41478 29.7242 1.28151 29.7751 1.13465L30.0232 0.349374C30.0888 0.141739 30.2813 0.000433966 30.499 9.97587e-07Z" fill="url(#paint0_linear_126_13065)"/>
<path opacity="0.6" d="M1.99921 32C2.17341 31.9997 2.3278 32.1121 2.38094 32.278L2.58542 32.9164C2.62515 33.0341 2.69141 33.1409 2.77901 33.2287C2.86639 33.3162 2.97264 33.3823 3.08952 33.4221L3.7204 33.6212C3.88657 33.6737 3.99967 33.8277 4 34.0019C4.00033 34.1762 3.88783 34.3306 3.72186 34.3837L3.09017 34.5857C2.97304 34.6254 2.86655 34.6917 2.77901 34.7794C2.69141 34.8671 2.62516 34.9739 2.58543 35.0916L2.38362 35.722C2.33093 35.8865 2.17851 35.9987 2.00571 36C1.83291 36.0013 1.6788 35.8915 1.62362 35.7277L1.41081 35.0963C1.37015 34.9777 1.30278 34.8692 1.21435 34.7807C1.12652 34.6927 1.01995 34.6259 0.902708 34.5851L0.2772 34.3834C0.112255 34.3301 0.000340785 34.1768 7.76656e-07 34.0035C-0.000339208 33.8301 0.110973 33.6763 0.275707 33.6225L0.910822 33.4148C1.02885 33.3746 1.13618 33.3078 1.22458 33.2195C1.31245 33.1318 1.37932 33.0252 1.42011 32.9077L1.61858 32.2795C1.67106 32.1134 1.82501 32.0003 1.99921 32Z" fill="url(#paint1_linear_126_13065)"/>
<path opacity="0.6" d="M34.4986 5C34.8035 4.9994 35.0736 5.19615 35.1666 5.48647L35.5245 6.60367C35.594 6.8096 35.71 6.99659 35.8633 7.15015C36.0162 7.30331 36.2021 7.41909 36.4067 7.48865L37.5107 7.83714C37.8015 7.92893 37.9994 8.1984 38 8.50334C38.0006 8.80827 37.8037 9.0785 37.5133 9.1714L36.4078 9.525C36.2028 9.59451 36.0165 9.71044 35.8633 9.86389C35.71 10.0174 35.594 10.2044 35.5245 10.4103L35.1713 11.5134C35.0791 11.8014 34.8124 11.9977 34.51 12C34.2076 12.0023 33.9379 11.8101 33.8413 11.5236L33.4689 10.4185C33.3978 10.2109 33.2799 10.0212 33.1251 9.86617C32.9714 9.71221 32.7849 9.59525 32.5797 9.52398L31.4851 9.17087C31.1964 9.07776 31.0006 8.80935 31 8.50605C30.9994 8.20275 31.1942 7.93357 31.4825 7.83933L32.5939 7.47598C32.8005 7.40547 32.9883 7.2886 33.143 7.13419C33.2968 6.98069 33.4138 6.79411 33.4852 6.58851L33.8325 5.48912C33.9244 5.19843 34.1938 5.00061 34.4986 5Z" fill="url(#paint2_linear_126_13065)"/>
<rect x="4" y="7" width="24" height="24" rx="4" fill="url(#paint3_linear_126_13065)"/>
<path d="M11.8741 21.2499C12.0374 21.2496 12.1822 21.355 12.232 21.5105L12.4237 22.109C12.461 22.2193 12.5231 22.3195 12.6052 22.4017C12.6871 22.4838 12.7867 22.5458 12.8963 22.5831L13.4878 22.7698C13.6435 22.8189 13.7496 22.9633 13.7499 23.1267C13.7502 23.29 13.6447 23.4348 13.4891 23.4846L12.8969 23.674C12.7871 23.7112 12.6873 23.7733 12.6052 23.8555C12.5231 23.9378 12.461 24.038 12.4237 24.1483L12.2345 24.7392C12.1851 24.8935 12.0422 24.9986 11.8802 24.9999C11.7182 25.0011 11.5738 24.8982 11.522 24.7446L11.3225 24.1526C11.2844 24.0414 11.2212 23.9398 11.1383 23.8568C11.056 23.7743 10.9561 23.7116 10.8462 23.6734L10.2598 23.4843C10.1051 23.4344 10.0002 23.2906 9.99988 23.1281C9.99956 22.9656 10.1039 22.8214 10.2584 22.7709L10.8538 22.5763C10.9644 22.5385 11.065 22.4759 11.1479 22.3932C11.2303 22.311 11.293 22.211 11.3312 22.1009L11.5173 21.5119C11.5665 21.3562 11.7108 21.2502 11.8741 21.2499Z" fill="url(#paint4_linear_126_13065)"/>
<path d="M11.8741 21.2499C12.0374 21.2496 12.1822 21.355 12.232 21.5105L12.4237 22.109C12.461 22.2193 12.5231 22.3195 12.6052 22.4017C12.6871 22.4838 12.7867 22.5458 12.8963 22.5831L13.4878 22.7698C13.6435 22.8189 13.7496 22.9633 13.7499 23.1267C13.7502 23.29 13.6447 23.4348 13.4891 23.4846L12.8969 23.674C12.7871 23.7112 12.6873 23.7733 12.6052 23.8555C12.5231 23.9378 12.461 24.038 12.4237 24.1483L12.2345 24.7392C12.1851 24.8935 12.0422 24.9986 11.8802 24.9999C11.7182 25.0011 11.5738 24.8982 11.522 24.7446L11.3225 24.1526C11.2844 24.0414 11.2212 23.9398 11.1383 23.8568C11.056 23.7743 10.9561 23.7116 10.8462 23.6734L10.2598 23.4843C10.1051 23.4344 10.0002 23.2906 9.99988 23.1281C9.99956 22.9656 10.1039 22.8214 10.2584 22.7709L10.8538 22.5763C10.9644 22.5385 11.065 22.4759 11.1479 22.3932C11.2303 22.311 11.293 22.211 11.3312 22.1009L11.5173 21.5119C11.5665 21.3562 11.7108 21.2502 11.8741 21.2499Z" fill="white"/>
<path d="M10.7499 18.6345C10.7492 18.3095 10.958 18.0211 11.2668 17.9202L13.2047 17.2866C13.6332 17.1409 14.0228 16.8987 14.3434 16.5787C14.6631 16.2596 14.9058 15.8715 15.0531 15.4441L15.6597 13.5239C15.7581 13.2125 16.0468 13.0005 16.3734 12.9999C16.7 12.9992 16.9895 13.21 17.0891 13.5211L17.7132 15.4696C17.8572 15.8977 18.0979 16.2866 18.4167 16.6059C18.735 16.9247 19.1224 17.1655 19.5487 17.3096L21.4756 17.9178C21.7872 18.0162 21.9993 18.3049 21.9999 18.6316C22.0005 18.9583 21.7896 19.2478 21.4784 19.3474L19.55 19.9642C19.1232 20.1082 18.7353 20.3492 18.4167 20.6683C18.098 20.9876 17.8572 21.3765 17.7132 21.8046L17.0973 23.7286C16.9985 24.0371 16.7127 24.2474 16.3887 24.2499C16.0647 24.2523 15.7758 24.0464 15.6723 23.7394L15.0233 21.8136L15.0228 21.8122C14.8759 21.3829 14.633 20.993 14.3128 20.6723C13.9938 20.3528 13.6065 20.1103 13.1802 19.9631L11.2696 19.3468C10.9604 19.247 10.7505 18.9595 10.7499 18.6345Z" fill="url(#paint5_linear_126_13065)"/>
<path d="M10.7499 18.6345C10.7492 18.3095 10.958 18.0211 11.2668 17.9202L13.2047 17.2866C13.6332 17.1409 14.0228 16.8987 14.3434 16.5787C14.6631 16.2596 14.9058 15.8715 15.0531 15.4441L15.6597 13.5239C15.7581 13.2125 16.0468 13.0005 16.3734 12.9999C16.7 12.9992 16.9895 13.21 17.0891 13.5211L17.7132 15.4696C17.8572 15.8977 18.0979 16.2866 18.4167 16.6059C18.735 16.9247 19.1224 17.1655 19.5487 17.3096L21.4756 17.9178C21.7872 18.0162 21.9993 18.3049 21.9999 18.6316C22.0005 18.9583 21.7896 19.2478 21.4784 19.3474L19.55 19.9642C19.1232 20.1082 18.7353 20.3492 18.4167 20.6683C18.098 20.9876 17.8572 21.3765 17.7132 21.8046L17.0973 23.7286C16.9985 24.0371 16.7127 24.2474 16.3887 24.2499C16.0647 24.2523 15.7758 24.0464 15.6723 23.7394L15.0233 21.8136L15.0228 21.8122C14.8759 21.3829 14.633 20.993 14.3128 20.6723C13.9938 20.3528 13.6065 20.1103 13.1802 19.9631L11.2696 19.3468C10.9604 19.247 10.7505 18.9595 10.7499 18.6345Z" fill="white"/>
<defs>
<linearGradient id="paint0_linear_126_13065" x1="27.4672" y1="2.04327" x2="33.0007" y2="1.93844" gradientUnits="userSpaceOnUse">
<stop stop-color="#DAC9FF"/>
<stop offset="0.420407" stop-color="#A33FE1"/>
<stop offset="1" stop-color="#6743E1"/>
</linearGradient>
<linearGradient id="paint1_linear_126_13065" x1="-0.426229" y1="33.6346" x2="4.0006" y2="33.5508" gradientUnits="userSpaceOnUse">
<stop stop-color="#DAC9FF"/>
<stop offset="0.420407" stop-color="#A33FE1"/>
<stop offset="1" stop-color="#6743E1"/>
</linearGradient>
<linearGradient id="paint2_linear_126_13065" x1="30.2541" y1="7.86058" x2="38.001" y2="7.71382" gradientUnits="userSpaceOnUse">
<stop stop-color="#DAC9FF"/>
<stop offset="0.420407" stop-color="#A33FE1"/>
<stop offset="1" stop-color="#6743E1"/>
</linearGradient>
<linearGradient id="paint3_linear_126_13065" x1="1.44262" y1="16.8077" x2="28.0036" y2="16.3045" gradientUnits="userSpaceOnUse">
<stop stop-color="#DAC9FF"/>
<stop offset="0.420407" stop-color="#A33FE1"/>
<stop offset="1" stop-color="#6743E1"/>
</linearGradient>
<linearGradient id="paint4_linear_126_13065" x1="8.72119" y1="17.9037" x2="22.0017" y2="17.6521" gradientUnits="userSpaceOnUse">
<stop stop-color="#DAC9FF"/>
<stop offset="0.420407" stop-color="#A33FE1"/>
<stop offset="1" stop-color="#6743E1"/>
</linearGradient>
<linearGradient id="paint5_linear_126_13065" x1="8.72119" y1="17.9037" x2="22.0017" y2="17.6521" gradientUnits="userSpaceOnUse">
<stop stop-color="#DAC9FF"/>
<stop offset="0.420407" stop-color="#A33FE1"/>
<stop offset="1" stop-color="#6743E1"/>
</linearGradient>
</defs>
</svg>
