<svg width="12" height="20" viewBox="0 0 12 20" fill="none" xmlns="http://www.w3.org/2000/svg">
<g clip-path="url(#clip0_1_63431)">
<rect y="4" width="12" height="12" rx="6" fill="#3091EC"/>
<path d="M2.14645 10.8535C1.95118 10.6583 1.95118 10.3417 2.14645 10.1464L4.14645 8.14645C4.34171 7.95118 4.65829 7.95118 4.85355 8.14645C5.04882 8.34171 5.04881 8.65829 4.85355 8.85355L3.70711 9.99999L9.5 10C9.77614 10 10 10.2239 10 10.5C10 10.7761 9.77614 11 9.5 11L3.70711 11L4.85355 12.1464C5.04882 12.3417 5.04882 12.6583 4.85355 12.8535C4.65829 13.0488 4.34171 13.0488 4.14645 12.8535L2.14645 10.8535Z" fill="white"/>
</g>
<defs>
<clipPath id="clip0_1_63431">
<rect y="4" width="12" height="12" rx="6" fill="white"/>
</clipPath>
</defs>
</svg>
