<svg width="20" height="20" viewBox="0 0 20 20" fill="none" xmlns="http://www.w3.org/2000/svg">
<path fill-rule="evenodd" clip-rule="evenodd" d="M16.666 15.8333V5C16.666 3.61929 15.5468 2.5 14.166 2.5H5.83268C4.45197 2.5 3.33268 3.61929 3.33268 5V15.8333H2.49935C2.03912 15.8333 1.66602 16.2064 1.66602 16.6667C1.66602 17.1269 2.03912 17.5 2.49935 17.5H17.4993C17.9596 17.5 18.3327 17.1269 18.3327 16.6667C18.3327 16.2064 17.9596 15.8333 17.4993 15.8333H16.666ZM7.49935 5.83333C7.03912 5.83333 6.66602 6.20643 6.66602 6.66667C6.66602 7.1269 7.03912 7.5 7.49935 7.5H8.33268C8.79293 7.5 9.16602 7.1269 9.16602 6.66667C9.16602 6.20643 8.79293 5.83333 8.33268 5.83333H7.49935ZM11.666 5.83333C11.2058 5.83333 10.8327 6.20643 10.8327 6.66667C10.8327 7.1269 11.2058 7.5 11.666 7.5H12.4993C12.9596 7.5 13.3327 7.1269 13.3327 6.66667C13.3327 6.20643 12.9596 5.83333 12.4993 5.83333H11.666ZM7.49935 9.16667C7.03912 9.16667 6.66602 9.53975 6.66602 10C6.66602 10.4602 7.03912 10.8333 7.49935 10.8333H8.33268C8.79293 10.8333 9.16602 10.4602 9.16602 10C9.16602 9.53975 8.79293 9.16667 8.33268 9.16667H7.49935ZM11.666 9.16667C11.2058 9.16667 10.8327 9.53975 10.8327 10C10.8327 10.4602 11.2058 10.8333 11.666 10.8333H12.4993C12.9596 10.8333 13.3327 10.4602 13.3327 10C13.3327 9.53975 12.9596 9.16667 12.4993 9.16667H11.666ZM7.49935 12.5C7.03912 12.5 6.66602 12.8731 6.66602 13.3333C6.66602 13.7936 7.03912 14.1667 7.49935 14.1667H8.33268C8.79293 14.1667 9.16602 13.7936 9.16602 13.3333C9.16602 12.8731 8.79293 12.5 8.33268 12.5H7.49935ZM11.666 12.5C11.2058 12.5 10.8327 12.8731 10.8327 13.3333C10.8327 13.7936 11.2058 14.1667 11.666 14.1667H12.4993C12.9596 14.1667 13.3327 13.7936 13.3327 13.3333C13.3327 12.8731 12.9596 12.5 12.4993 12.5H11.666Z" fill="#68737D"/>
</svg>
