<svg width="20" height="20" viewBox="0 0 20 20" fill="none" xmlns="http://www.w3.org/2000/svg">
<path d="M15.738 1.95435C15.7195 1.79066 15.5811 1.66691 15.4163 1.66675C15.2516 1.66658 15.1129 1.79003 15.0941 1.95369C15.0062 2.71559 14.7799 3.23828 14.4254 3.59281C14.0708 3.94733 13.5482 4.1736 12.7863 4.26147C12.6226 4.28035 12.4992 4.41901 12.4993 4.58375C12.4995 4.74849 12.6233 4.88689 12.7869 4.90543C13.5359 4.99027 14.0706 5.21649 14.4341 5.57345C14.7957 5.92847 15.0262 6.45042 15.0932 7.20468C15.1081 7.37203 15.2483 7.50027 15.4163 7.50008C15.5843 7.49989 15.7244 7.37134 15.7388 7.20396C15.8031 6.46244 16.0334 5.92873 16.3973 5.56478C16.7613 5.20084 17.295 4.97047 18.0365 4.90628C18.2039 4.89179 18.3325 4.75179 18.3327 4.58378C18.3328 4.41577 18.2046 4.27548 18.0373 4.26061C17.283 4.19361 16.7611 3.96306 16.406 3.6015C16.0491 3.23796 15.8228 2.70336 15.738 1.95435Z" fill="#68737D"/>
<path d="M9.99402 4.07296C9.94635 3.65203 9.59052 3.33385 9.16685 3.33342C8.74327 3.33298 8.38668 3.65043 8.33818 4.07126C8.1122 6.03045 7.53038 7.37449 6.61874 8.28614C5.7071 9.19775 4.36305 9.77958 2.40387 10.0056C1.98303 10.0541 1.66558 10.4107 1.66602 10.8342C1.66645 11.2579 1.98463 11.6137 2.40556 11.6614C4.33161 11.8796 5.70627 12.4613 6.64108 13.3792C7.57082 14.2922 8.16367 15.6342 8.33593 17.5738C8.37418 18.0042 8.73493 18.3339 9.16693 18.3334C9.59902 18.3329 9.95902 18.0023 9.99627 17.5719C10.1613 15.6652 10.7537 14.2928 11.6895 13.3569C12.6254 12.4211 13.9978 11.8287 15.9045 11.6637C16.3349 11.6264 16.6655 11.2664 16.666 10.8343C16.6665 10.4023 16.3368 10.0416 15.9064 10.0033C13.9668 9.83108 12.6248 9.23825 11.7119 8.30848C10.7939 7.37367 10.2122 5.99901 9.99402 4.07296Z" fill="#68737D"/>
</svg>
