<svg width="20" height="20" viewBox="0 0 20 20" fill="none" xmlns="http://www.w3.org/2000/svg">
<path fill-rule="evenodd" clip-rule="evenodd" d="M1.66663 5.83331C1.66663 4.4526 2.78592 3.33331 4.16663 3.33331H15.8333C17.214 3.33331 18.3333 4.4526 18.3333 5.83331V14.1666C18.3333 15.5474 17.214 16.6666 15.8333 16.6666H4.16663C2.78592 16.6666 1.66663 15.5474 1.66663 14.1666V5.83331ZM7.49996 11.6666C7.49996 11.2064 7.12686 10.8333 6.66663 10.8333C6.20639 10.8333 5.83329 11.2064 5.83329 11.6666V12.5C5.83329 12.9602 6.20639 13.3333 6.66663 13.3333C7.12686 13.3333 7.49996 12.9602 7.49996 12.5V11.6666ZM9.99996 6.66665C10.4602 6.66665 10.8333 7.03975 10.8333 7.49998V12.5C10.8333 12.9602 10.4602 13.3333 9.99996 13.3333C9.53971 13.3333 9.16663 12.9602 9.16663 12.5V7.49998C9.16663 7.03975 9.53971 6.66665 9.99996 6.66665ZM14.1666 9.99998C14.1666 9.53973 13.7935 9.16665 13.3333 9.16665C12.873 9.16665 12.5 9.53973 12.5 9.99998V12.5C12.5 12.9602 12.873 13.3333 13.3333 13.3333C13.7935 13.3333 14.1666 12.9602 14.1666 12.5V9.99998Z" fill="#5C6970"/>
</svg>
