<svg width="20" height="20" viewBox="0 0 20 20" fill="none" xmlns="http://www.w3.org/2000/svg">
<path fill-rule="evenodd" clip-rule="evenodd" d="M10 1.66669C6.75502 1.66669 4.08007 4.21124 3.91802 7.45217L3.76851 10.4424C3.76275 10.5576 3.73314 10.6704 3.68157 10.7735L2.65915 12.8184C2.55449 13.0277 2.5 13.2584 2.5 13.4925C2.5 14.3251 3.17493 15 4.00752 15H5.91668C6.30274 16.9019 7.9842 18.3334 10 18.3334C12.0158 18.3334 13.6972 16.9019 14.0833 15H15.9925C16.8251 15 17.5 14.3251 17.5 13.4925C17.5 13.2584 17.4455 13.0277 17.3408 12.8184L16.3184 10.7735C16.2668 10.6704 16.2373 10.5576 16.2315 10.4424L16.082 7.45217C15.9199 4.21124 13.245 1.66669 10 1.66669ZM10 16.6667C8.9115 16.6667 7.98545 15.971 7.64226 15H12.3577C12.0146 15.971 11.0885 16.6667 10 16.6667Z" fill="#5C6970"/>
</svg>
