<svg width="20" height="20" viewBox="0 0 20 20" fill="none" xmlns="http://www.w3.org/2000/svg">
<path d="M6.66667 1.66669C7.1269 1.66669 7.5 2.03979 7.5 2.50002V3.33335H12.5V2.50002C12.5 2.03979 12.8731 1.66669 13.3333 1.66669C13.7936 1.66669 14.1667 2.03979 14.1667 2.50002V3.33335H15C16.3807 3.33335 17.5 4.45265 17.5 5.83335V7.50002H2.5V5.83335C2.5 4.45265 3.61929 3.33335 5 3.33335H5.83333V2.50002C5.83333 2.03979 6.20643 1.66669 6.66667 1.66669Z" fill="#5C6970"/>
<path d="M2.5 15V9.16669H17.5V15C17.5 16.3808 16.3807 17.5 15 17.5H5C3.61929 17.5 2.5 16.3808 2.5 15Z" fill="#5C6970"/>
</svg>
