<svg width="20" height="20" viewBox="0 0 20 20" fill="none" xmlns="http://www.w3.org/2000/svg">
<path fill-rule="evenodd" clip-rule="evenodd" d="M16.6667 4.58329C16.6667 3.95522 16.308 3.46951 15.9126 3.13565C15.5134 2.79853 14.985 2.53248 14.4051 2.32537C13.238 1.90856 11.6805 1.66663 10 1.66663C8.31955 1.66663 6.76204 1.90856 5.59497 2.32537C5.01507 2.53248 4.48675 2.79853 4.08749 3.13565C3.69211 3.46951 3.33337 3.95522 3.33337 4.58329V8.33329C3.33337 8.96138 3.69211 9.44704 4.08749 9.78096C4.48675 10.118 5.01507 10.3841 5.59497 10.5912C6.76204 11.008 8.31955 11.25 10 11.25C11.6805 11.25 13.238 11.008 14.4051 10.5912C14.985 10.3841 15.5134 10.118 15.9126 9.78096C16.308 9.44704 16.6667 8.96138 16.6667 8.33329V4.58329ZM5.16275 4.40908C5.05872 4.49691 5.01938 4.55563 5.00532 4.58329C5.01938 4.61095 5.05872 4.66968 5.16275 4.75751C5.35386 4.91888 5.67982 5.10175 6.15553 5.27165C7.09971 5.60885 8.45887 5.83329 10 5.83329C11.5412 5.83329 12.9004 5.60885 13.8445 5.27165C14.3203 5.10175 14.6462 4.91888 14.8374 4.75751C14.9414 4.66968 14.9807 4.61095 14.9948 4.58329C14.9807 4.55563 14.9414 4.49691 14.8374 4.40908C14.6462 4.24771 14.3203 4.06483 13.8445 3.89493C12.9004 3.55773 11.5412 3.33329 10 3.33329C8.45887 3.33329 7.09971 3.55773 6.15553 3.89493C5.67982 4.06483 5.35386 4.24771 5.16275 4.40908Z" fill="#5C6970"/>
<path d="M14.9657 12.1608C15.533 11.9581 16.1323 11.6834 16.6667 11.3031V15.4166C16.6667 16.0447 16.308 16.5304 15.9126 16.8643C15.5134 17.2014 14.985 17.4675 14.4051 17.6745C13.238 18.0914 11.6805 18.3333 10 18.3333C8.31955 18.3333 6.76204 18.0914 5.59497 17.6745C5.01507 17.4675 4.48675 17.2014 4.08749 16.8643C3.69211 16.5304 3.33337 16.0447 3.33337 15.4166V11.3031C3.86779 11.6834 4.46704 11.9581 5.03441 12.1608C6.42439 12.6572 8.18024 12.9166 10 12.9166C11.8199 12.9166 13.5757 12.6572 14.9657 12.1608Z" fill="#5C6970"/>
</svg>
