<svg width="20" height="20" viewBox="0 0 20 20" fill="none" xmlns="http://www.w3.org/2000/svg">
<path fill-rule="evenodd" clip-rule="evenodd" d="M8.15431 2.65438C8.56571 2.03728 9.25829 1.66663 9.99996 1.66663C10.7416 1.66663 11.4342 2.03728 11.8456 2.65438L12.3091 3.34961C12.4967 3.63099 12.8389 3.76687 13.1684 3.69083L13.7401 3.55888C14.4968 3.38427 15.29 3.61176 15.839 4.16085C16.3881 4.70993 16.6156 5.50315 16.441 6.25979L16.3091 6.83155C16.233 7.16107 16.369 7.50324 16.6503 7.69083L17.3455 8.15431C17.9626 8.56571 18.3333 9.25829 18.3333 9.99996C18.3333 10.7416 17.9626 11.4342 17.3455 11.8456L16.6503 12.3091C16.369 12.4967 16.233 12.8389 16.3091 13.1684L16.441 13.7401C16.6156 14.4968 16.3881 15.29 15.839 15.839C15.29 16.3881 14.4968 16.6156 13.7401 16.441L13.1684 16.3091C12.8389 16.233 12.4967 16.369 12.3091 16.6503L11.8456 17.3455C11.4342 17.9626 10.7416 18.3333 9.99996 18.3333C9.25829 18.3333 8.56571 17.9626 8.15431 17.3455L7.69083 16.6503C7.50324 16.369 7.16107 16.233 6.83155 16.3091L6.25979 16.441C5.50315 16.6156 4.70993 16.3881 4.16085 15.839C3.61176 15.29 3.38427 14.4968 3.55888 13.7401L3.69083 13.1684C3.76687 12.8389 3.63099 12.4967 3.34961 12.3091L2.65438 11.8456C2.03728 11.4342 1.66663 10.7416 1.66663 9.99996C1.66663 9.25829 2.03729 8.56571 2.65438 8.15431L3.34961 7.69083C3.63099 7.50324 3.76687 7.16107 3.69083 6.83155L3.55888 6.25979C3.38427 5.50315 3.61176 4.70993 4.16085 4.16085C4.70993 3.61176 5.50315 3.38427 6.25979 3.55888L6.83155 3.69083C7.16107 3.76687 7.50324 3.63099 7.69083 3.34961L8.15431 2.65438ZM7.08329 9.99996C7.08329 8.38913 8.38913 7.08329 9.99996 7.08329C11.6108 7.08329 12.9166 8.38913 12.9166 9.99996C12.9166 11.6108 11.6108 12.9166 9.99996 12.9166C8.38913 12.9166 7.08329 11.6108 7.08329 9.99996Z" fill="#5C6970"/>
</svg>
