<svg width="20" height="20" viewBox="0 0 20 20" fill="none" xmlns="http://www.w3.org/2000/svg">
<path d="M5.00003 2.50001L15 2.5C16.3807 2.5 17.5 3.61929 17.5 5V10H13.2283C12.8481 10 12.5161 10.2574 12.4213 10.6256C12.1437 11.7041 11.1637 12.5 10 12.5C8.83625 12.5 7.85629 11.7041 7.57872 10.6256C7.48394 10.2574 7.15192 10 6.77169 10H2.50003L2.50003 5C2.50003 3.61929 3.61933 2.50001 5.00003 2.50001Z" fill="#5C6970"/>
<path d="M17.5 11.6667V15C17.5 16.3807 16.3807 17.5 15 17.5H5C3.61928 17.5 2.49999 16.3807 2.5 15L2.50003 10L2.50003 11.6667H6.18032C6.8232 13.1379 8.29065 14.1667 10 14.1667C11.7093 14.1667 13.1768 13.1379 13.8197 11.6667H17.5Z" fill="#5C6970"/>
</svg>
