<svg width="20" height="20" viewBox="0 0 20 20" fill="none" xmlns="http://www.w3.org/2000/svg">
<path d="M10.0002 1.25C8.47324 1.25 7.22039 2.42328 7.09396 3.91747C5.10461 4.75431 3.55308 6.42324 2.87382 8.48983C2.73011 8.92708 2.96805 9.398 3.40529 9.54175C3.84251 9.68542 4.31345 9.4475 4.45715 9.01025C4.95174 7.50553 6.04335 6.27005 7.45089 5.58491C7.94924 6.47877 8.90407 7.08333 10.0002 7.08333C11.611 7.08333 12.9168 5.7775 12.9168 4.16667C12.9168 2.55583 11.611 1.25 10.0002 1.25Z" fill="#68737D"/>
<path d="M15.6565 5.90823C15.3542 5.56125 14.8278 5.52507 14.4808 5.82744C14.1338 6.1298 14.0976 6.65619 14.4 7.00317C15.2934 8.02841 15.8335 9.3668 15.8335 10.8335C15.8335 10.9737 15.8286 11.1127 15.8189 11.2503C14.7944 11.2335 13.7915 11.7582 13.2428 12.7085C12.4374 14.1034 12.9154 15.887 14.3103 16.6923C15.7051 17.4976 17.4887 17.0197 18.294 15.6249C19.0565 14.3042 18.6686 12.635 17.4413 11.7777C17.4802 11.4681 17.5002 11.153 17.5002 10.8335C17.5002 8.94913 16.8043 7.22535 15.6565 5.90823Z" fill="#68737D"/>
<path d="M6.75101 12.7084C5.94568 11.3136 4.16209 10.8357 2.76724 11.641C1.37238 12.4463 0.894476 14.2299 1.69979 15.6248C2.46351 16.9475 4.10703 17.4457 5.46446 16.8068C6.72381 17.7643 8.29636 18.3333 10.0002 18.3333C10.4798 18.3333 10.9496 18.2882 11.4054 18.2018C11.8576 18.1159 12.1547 17.6798 12.0688 17.2277C11.9831 16.7755 11.547 16.4785 11.0948 16.5643C10.7409 16.6314 10.3751 16.6667 10.0002 16.6667C8.78708 16.6667 7.66172 16.2971 6.7287 15.6638C7.25286 14.7855 7.2987 13.6571 6.75101 12.7084Z" fill="#68737D"/>
</svg>
