<svg width="20" height="20" viewBox="0 0 20 20" fill="none" xmlns="http://www.w3.org/2000/svg">
<path d="M5.00049 2.5C3.65146 2.5 2.42543 3.61963 2.6096 5.0996C3.4076 11.5121 8.48838 16.5929 14.9009 17.3909C16.3809 17.5751 17.5005 16.349 17.5005 15V13.9068C17.5005 12.8027 16.7763 11.8294 15.7189 11.5122L14.4434 11.1295C13.6138 10.8807 12.7146 11.1073 12.1022 11.7197C11.8801 11.9419 11.5945 11.9558 11.4134 11.8437C10.0917 11.026 8.97446 9.90875 8.15671 8.58717C8.04462 8.406 8.0586 8.12039 8.28074 7.89826C8.89313 7.28586 9.11988 6.38666 8.87096 5.55712L8.48829 4.28163C8.17109 3.22417 7.19779 2.5 6.09377 2.5H5.00049Z" fill="#5C6970"/>
<path d="M14.5831 7.50012L14.5791 7.58508C14.5364 8.00526 14.1815 8.33313 13.75 8.33313C13.3186 8.33313 12.9637 8.00526 12.9209 7.58508L12.917 7.50012V3.33313C12.917 2.87289 13.2898 2.50012 13.75 2.50012C14.2103 2.50012 14.5831 2.87289 14.5831 3.33313V7.50012Z" fill="#5C6970"/>
<path d="M17.4997 7.50012L17.4958 7.58508C17.4531 8.00526 17.0982 8.33313 16.6667 8.33313C16.2353 8.33313 15.8803 8.00526 15.8376 7.58508L15.8337 7.50012V3.33313C15.8337 2.87289 16.2065 2.50012 16.6667 2.50012C17.127 2.50012 17.4997 2.87289 17.4997 3.33313V7.50012Z" fill="#5C6970"/>
</svg>
