<svg width="20" height="20" viewBox="0 0 20 20" fill="none" xmlns="http://www.w3.org/2000/svg">
<path d="M5.00049 2.5C3.65146 2.5 2.42543 3.61963 2.6096 5.0996C3.4076 11.5121 8.48838 16.5929 14.9009 17.3909C16.3809 17.5751 17.5005 16.349 17.5005 15V13.9068C17.5005 12.8027 16.7763 11.8294 15.7189 11.5122L14.4434 11.1295C13.6138 10.8807 12.7146 11.1073 12.1022 11.7197C11.8801 11.9419 11.5945 11.9558 11.4134 11.8437C10.0917 11.026 8.97446 9.90875 8.15671 8.58717C8.04462 8.406 8.0586 8.12039 8.28074 7.89826C8.89313 7.28586 9.11988 6.38666 8.87096 5.55712L8.48829 4.28163C8.17109 3.22417 7.19779 2.5 6.09377 2.5H5.00049Z" fill="#5C6970"/>
<path d="M16.6667 7.5C16.6667 7.96023 16.2936 8.33333 15.8334 8.33333H12.5C12.0398 8.33333 11.6667 7.96023 11.6667 7.5V4.16667C11.6667 3.70643 12.0398 3.33333 12.5 3.33333C12.9603 3.33333 13.3334 3.70643 13.3334 4.16667V5.48816L16.0775 2.74408C16.4029 2.41864 16.9305 2.41864 17.256 2.74408C17.5814 3.06952 17.5814 3.59715 17.256 3.92259L14.5119 6.66667H15.8334C16.2936 6.66667 16.6667 7.03977 16.6667 7.5Z" fill="#5C6970"/>
</svg>
