<svg width="20" height="20" viewBox="0 0 20 20" fill="none" xmlns="http://www.w3.org/2000/svg">
<path fill-rule="evenodd" clip-rule="evenodd" d="M1.66666 7.5C1.66666 4.73857 3.90523 2.5 6.66666 2.5H13.3333C16.0947 2.5 18.3333 4.73857 18.3333 7.5V12.5C18.3333 15.2614 16.0947 17.5 13.3333 17.5H2.49999C2.03976 17.5 1.66666 17.1269 1.66666 16.6667V7.5ZM6.66666 11.0417C6.09136 11.0417 5.62499 10.5753 5.62499 10C5.62499 9.42467 6.09136 8.95833 6.66666 8.95833C7.24196 8.95833 7.70832 9.42467 7.70832 10C7.70832 10.5753 7.24196 11.0417 6.66666 11.0417ZM9.99999 11.0417C9.42466 11.0417 8.95832 10.5753 8.95832 10C8.95832 9.42467 9.42466 8.95833 9.99999 8.95833C10.5753 8.95833 11.0417 9.42467 11.0417 10C11.0417 10.5753 10.5753 11.0417 9.99999 11.0417ZM12.2917 10C12.2917 10.5753 12.758 11.0417 13.3333 11.0417C13.9087 11.0417 14.375 10.5753 14.375 10C14.375 9.42467 13.9087 8.95833 13.3333 8.95833C12.758 8.95833 12.2917 9.42467 12.2917 10Z" fill="#5C6970"/>
</svg>
