<svg width="20" height="20" viewBox="0 0 20 20" fill="none" xmlns="http://www.w3.org/2000/svg">
<path d="M5.00045 2.5C3.65143 2.5 2.4254 3.61963 2.60957 5.0996C3.40757 11.5121 8.48835 16.5929 14.9008 17.3909C16.3808 17.5751 17.5004 16.349 17.5004 15V13.9068C17.5004 12.8027 16.7763 11.8294 15.7188 11.5122L14.4433 11.1295C13.6138 10.8807 12.7146 11.1073 12.1022 11.7198C11.8801 11.9419 11.5944 11.9558 11.4133 11.8438C10.0917 11.026 8.97443 9.90875 8.15668 8.58717C8.04459 8.406 8.05857 8.12039 8.2807 7.89826C8.8931 7.28586 9.11985 6.38666 8.87093 5.55713L8.48826 4.28163C8.17106 3.22418 7.19776 2.5 6.09374 2.5H5.00045Z" fill="#5C6970"/>
</svg>
