<svg width="20" height="20" viewBox="0 0 20 20" fill="none" xmlns="http://www.w3.org/2000/svg">
<path d="M9.30825 2.5C8.61792 2.5 8.05827 3.05964 8.05827 3.75V16.2508C8.05827 16.9412 8.61792 17.5008 9.30825 17.5008H10.6999C11.3903 17.5008 11.9499 16.9412 11.9499 16.2508V3.75C11.9499 3.05964 11.3903 2.5 10.6999 2.5H9.30825Z" fill="#5C6970"/>
<path d="M3.75 10.8342C3.05964 10.8342 2.5 11.3938 2.5 12.0842V16.2508C2.5 16.9412 3.05964 17.5008 3.75 17.5008H5.14167C5.83203 17.5008 6.39167 16.9412 6.39167 16.2508V12.0842C6.39167 11.3938 5.83203 10.8342 5.14167 10.8342H3.75Z" fill="#5C6970"/>
<path d="M13.6165 7.91667C13.6165 7.22631 14.1762 6.66667 14.8665 6.66667H16.2582C16.9486 6.66667 17.5082 7.22631 17.5082 7.91667V16.2508C17.5082 16.9412 16.9486 17.5008 16.2582 17.5008H14.8665C14.1762 17.5008 13.6165 16.9412 13.6165 16.2508V7.91667Z" fill="#5C6970"/>
</svg>
