<svg width="20" height="20" viewBox="0 0 20 20" fill="none" xmlns="http://www.w3.org/2000/svg">
<path fill-rule="evenodd" clip-rule="evenodd" d="M5.83334 1.66669C4.45264 1.66669 3.33334 2.78598 3.33334 4.16669V15.8334C3.33334 17.2141 4.45264 18.3334 5.83334 18.3334H14.1667C15.5474 18.3334 16.6667 17.2141 16.6667 15.8334V4.16669C16.6667 2.78598 15.5474 1.66669 14.1667 1.66669H5.83334ZM5.00001 15.8334C5.00001 16.2936 5.37311 16.6667 5.83334 16.6667H14.1667C14.6269 16.6667 15 16.2936 15 15.8334V14.8578C14.7393 14.9499 14.4588 15 14.1667 15H5.83334C5.37311 15 5.00001 15.3731 5.00001 15.8334ZM7.50001 5.00002C7.03978 5.00002 6.66668 5.37312 6.66668 5.83335C6.66668 6.29359 7.03978 6.66669 7.50001 6.66669H12.5C12.9603 6.66669 13.3333 6.29359 13.3333 5.83335C13.3333 5.37312 12.9603 5.00002 12.5 5.00002H7.50001ZM6.66668 9.16669C6.66668 8.70644 7.03978 8.33335 7.50001 8.33335H10C10.4603 8.33335 10.8333 8.70644 10.8333 9.16669C10.8333 9.62694 10.4603 10 10 10H7.50001C7.03978 10 6.66668 9.62694 6.66668 9.16669Z" fill="#5C6970"/>
</svg>
