<svg width="20" height="20" viewBox="0 0 20 20" fill="none" xmlns="http://www.w3.org/2000/svg">
<path d="M10.042 1.25C13.1599 1.25 16.5705 3.15864 16.8887 7.74414C17.8535 7.92625 18.584 8.77424 18.584 9.79199V12.083C18.584 13.0385 17.9405 13.8442 17.0635 14.0898C16.723 16.1403 15.021 17.7296 12.918 17.9004C12.6069 18.414 12.0447 18.7588 11.4004 18.7588C10.4201 18.7586 9.62502 17.9638 9.625 16.9834C9.625 16.003 10.4201 15.2082 11.4004 15.208C12.1044 15.208 12.711 15.6188 12.998 16.2129C14.1147 16.0374 15.0214 15.2301 15.3379 14.167H15.25C14.7899 14.1668 14.417 13.7931 14.417 13.333V8.54199C14.417 8.09663 14.7665 7.733 15.2061 7.70996C14.8758 4.14899 12.3202 2.91699 10.042 2.91699C7.7638 2.91699 5.20819 4.14899 4.87793 7.70996C5.31756 7.73299 5.66699 8.09663 5.66699 8.54199V13.333C5.66699 13.7931 5.29407 14.1668 4.83398 14.167H3.58398C2.43339 14.167 1.5 13.2336 1.5 12.083V9.79199C1.5 8.77424 2.23051 7.92625 3.19531 7.74414C3.51351 3.15864 6.92412 1.25 10.042 1.25Z" fill="#5C6970"/>
</svg>
