<svg width="20" height="20" viewBox="0 0 20 20" fill="none" xmlns="http://www.w3.org/2000/svg">
<path d="M16.6666 10.0001C16.6666 6.31818 13.6819 3.33341 9.99996 3.33341C6.31806 3.33341 3.33329 6.31818 3.33329 10.0001C3.33329 13.682 6.31806 16.6667 9.99996 16.6667C13.6819 16.6667 16.6666 13.682 16.6666 10.0001ZM18.3333 10.0001C18.3333 14.6025 14.6023 18.3334 9.99996 18.3334C5.39759 18.3334 1.66663 14.6025 1.66663 10.0001C1.66663 5.39771 5.39759 1.66675 9.99996 1.66675C14.6023 1.66675 18.3333 5.39771 18.3333 10.0001Z" fill="#5C6970"/>
<path d="M14.1666 10.0001C14.1666 12.3013 12.3011 14.1667 9.99996 14.1667C7.69877 14.1667 5.83329 12.3013 5.83329 10.0001C5.83329 7.69889 7.69877 5.83341 9.99996 5.83341C12.3011 5.83341 14.1666 7.69889 14.1666 10.0001Z" fill="#5C6970"/>
</svg>
