<svg width="20" height="20" viewBox="0 0 20 20" fill="none" xmlns="http://www.w3.org/2000/svg">
<path d="M6.15541 7.40126C5.99781 7.67423 5.99781 8.01053 6.15541 8.2835C6.313 8.55646 6.60426 8.72462 6.91945 8.72462L13.0317 8.72462C13.3469 8.72462 13.6382 8.55646 13.7958 8.2835C13.9533 8.01054 13.9534 7.67424 13.7957 7.40127L10.7397 2.10787C10.5821 1.83492 10.2908 1.66671 9.97558 1.66675C9.66042 1.66669 9.36918 1.83486 9.21154 2.10785L6.15541 7.40126Z" fill="#5C6970"/>
<path d="M14.3868 10.4891C12.4378 10.4891 10.8578 12.069 10.8578 14.018C10.8578 15.967 12.4378 17.547 14.3868 17.547C16.3358 17.547 17.9157 15.967 17.9157 14.018C17.9157 12.069 16.3358 10.4891 14.3868 10.4891Z" fill="#5C6970"/>
<path d="M2.91772 12.4741C2.91772 11.4996 3.7077 10.7097 4.68219 10.7097H7.77002C8.74451 10.7097 9.53449 11.4996 9.53449 12.4741V15.5619C9.53449 16.5364 8.74451 17.3264 7.77002 17.3264H4.68219C3.7077 17.3264 2.91772 16.5364 2.91772 15.5619V12.4741Z" fill="#5C6970"/>
</svg>
