<svg width="20" height="20" viewBox="0 0 20 20" fill="none" xmlns="http://www.w3.org/2000/svg">
<path d="M2.50208 4.99963C2.50208 3.62007 3.62043 2.50171 4.99999 2.50171H6.66666C8.04623 2.50171 9.16458 3.62007 9.16458 4.99963V6.66629C9.16458 8.04586 8.04623 9.16425 6.66666 9.16425H4.99999C3.62043 9.16425 2.50208 8.04586 2.50208 6.66629V4.99963Z" fill="#5C6970"/>
<path d="M2.50208 13.333C2.50208 11.9534 3.62043 10.8351 4.99999 10.8351H6.66666C8.04623 10.8351 9.16458 11.9534 9.16458 13.333V14.9997C9.16458 16.3792 8.04623 17.4976 6.66666 17.4976H4.99999C3.62043 17.4976 2.50208 16.3792 2.50208 14.9997V13.333Z" fill="#5C6970"/>
<path d="M10.8354 4.99963C10.8354 3.62007 11.9537 2.50171 13.3333 2.50171H15C16.3796 2.50171 17.4979 3.62007 17.4979 4.99963V6.66629C17.4979 8.04586 16.3796 9.16425 15 9.16425H13.3333C11.9537 9.16425 10.8354 8.04586 10.8354 6.66629V4.99963Z" fill="#5C6970"/>
<path fill-rule="evenodd" clip-rule="evenodd" d="M14.1667 10.8351C12.3268 10.8351 10.8354 12.3265 10.8354 14.1663C10.8354 16.0061 12.3268 17.4976 14.1667 17.4976C16.0065 17.4976 17.4979 16.0061 17.4979 14.1663C17.4979 12.3265 16.0065 10.8351 14.1667 10.8351ZM12.4979 14.1663C12.4979 13.2447 13.2451 12.4976 14.1667 12.4976C15.0883 12.4976 15.8354 13.2447 15.8354 14.1663C15.8354 15.0879 15.0883 15.8351 14.1667 15.8351C13.2451 15.8351 12.4979 15.0879 12.4979 14.1663Z" fill="#5C6970"/>
</svg>
