<svg width="20" height="20" viewBox="0 0 20 20" fill="none" xmlns="http://www.w3.org/2000/svg">
<path d="M13.7438 5.07782C14.0693 4.75238 14.5971 4.75238 14.9225 5.07782C15.2478 5.40321 15.2478 5.93016 14.9225 6.25555L11.1774 9.99969L14.9225 13.7438C15.248 14.0693 15.248 14.5971 14.9225 14.9225C14.5971 15.248 14.0693 15.248 13.7438 14.9225L9.99969 11.1774L6.25555 14.9225C5.93016 15.2478 5.40321 15.2478 5.07782 14.9225C4.75238 14.5971 4.75238 14.0693 5.07782 13.7438L8.82098 9.99969L5.07782 6.25555C4.75238 5.93012 4.75238 5.40325 5.07782 5.07782C5.40325 4.75238 5.93012 4.75238 6.25555 5.07782L9.99969 8.82098L13.7438 5.07782Z" fill="#5C6970"/>
</svg>
