<svg width="24" height="24" viewBox="0 0 24 24" fill="none" xmlns="http://www.w3.org/2000/svg">
<rect width="24" height="24" rx="4" fill="url(#paint0_linear_126_14594)"/>
<path d="M7.87426 14.2499C8.03757 14.2496 8.18231 14.355 8.23213 14.5105L8.42383 15.109C8.46108 15.2193 8.52319 15.3195 8.60532 15.4017C8.68724 15.4838 8.78685 15.5458 8.89643 15.5831L9.48788 15.7698C9.64366 15.8189 9.74969 15.9633 9.75 16.1267C9.75031 16.29 9.64484 16.4348 9.48925 16.4846L8.89704 16.674C8.78722 16.7112 8.68739 16.7733 8.60532 16.8555C8.5232 16.9378 8.46109 17.038 8.42384 17.1483L8.23465 17.7392C8.18525 17.8935 8.04236 17.9986 7.88036 17.9999C7.71836 18.0011 7.57388 17.8982 7.52214 17.7446L7.32264 17.1526C7.28452 17.0414 7.22136 16.9398 7.13845 16.8568C7.05611 16.7743 6.95621 16.7116 6.84629 16.6734L6.25987 16.4843C6.10524 16.4344 6.00032 16.2906 6 16.1281C5.99968 15.9656 6.10404 15.8214 6.25848 15.7709L6.8539 15.5763C6.96455 15.5385 7.06517 15.4759 7.14804 15.3932C7.23042 15.311 7.29311 15.211 7.33135 15.1009L7.51742 14.5119C7.56662 14.3562 7.71094 14.2502 7.87426 14.2499Z" fill="url(#paint1_linear_126_14594)"/>
<path d="M7.87426 14.2499C8.03757 14.2496 8.18231 14.355 8.23213 14.5105L8.42383 15.109C8.46108 15.2193 8.52319 15.3195 8.60532 15.4017C8.68724 15.4838 8.78685 15.5458 8.89643 15.5831L9.48788 15.7698C9.64366 15.8189 9.74969 15.9633 9.75 16.1267C9.75031 16.29 9.64484 16.4348 9.48925 16.4846L8.89704 16.674C8.78722 16.7112 8.68739 16.7733 8.60532 16.8555C8.5232 16.9378 8.46109 17.038 8.42384 17.1483L8.23465 17.7392C8.18525 17.8935 8.04236 17.9986 7.88036 17.9999C7.71836 18.0011 7.57388 17.8982 7.52214 17.7446L7.32264 17.1526C7.28452 17.0414 7.22136 16.9398 7.13845 16.8568C7.05611 16.7743 6.95621 16.7116 6.84629 16.6734L6.25987 16.4843C6.10524 16.4344 6.00032 16.2906 6 16.1281C5.99968 15.9656 6.10404 15.8214 6.25848 15.7709L6.8539 15.5763C6.96455 15.5385 7.06517 15.4759 7.14804 15.3932C7.23042 15.311 7.29311 15.211 7.33135 15.1009L7.51742 14.5119C7.56662 14.3562 7.71094 14.2502 7.87426 14.2499Z" fill="white"/>
<path d="M6.75 11.6345C6.74936 11.3095 6.95807 11.0211 7.26695 10.9202L9.20485 10.2866C9.63332 10.1409 10.0229 9.89874 10.3435 9.57866C10.6632 9.25961 10.9059 8.87155 11.0532 8.44406L11.6598 6.52394C11.7582 6.21249 12.0469 6.00053 12.3735 5.99988C12.7001 5.99923 12.9896 6.21004 13.0893 6.5211L13.7134 8.46956C13.8573 8.89769 14.0981 9.28658 14.4168 9.60587C14.7351 9.92471 15.1225 10.1655 15.5488 10.3096L17.4758 10.9178C17.7873 11.0162 17.9994 11.3049 18 11.6316C18.0006 11.9583 17.7897 12.2478 17.4785 12.3474L15.5501 12.9642C15.1233 13.1082 14.7354 13.3492 14.4168 13.6683C14.0981 13.9876 13.8573 14.3765 13.7134 14.8046L13.0974 16.7286C12.9986 17.0371 12.7128 17.2474 12.3888 17.2499C12.0648 17.2523 11.7759 17.0464 11.6724 16.7394L11.0234 14.8136L11.0229 14.8122C10.876 14.3829 10.6331 13.993 10.313 13.6723C9.99397 13.3528 9.60663 13.1103 9.18037 12.9631L7.26975 12.3468C6.96048 12.247 6.75064 11.9595 6.75 11.6345Z" fill="url(#paint2_linear_126_14594)"/>
<path d="M6.75 11.6345C6.74936 11.3095 6.95807 11.0211 7.26695 10.9202L9.20485 10.2866C9.63332 10.1409 10.0229 9.89874 10.3435 9.57866C10.6632 9.25961 10.9059 8.87155 11.0532 8.44406L11.6598 6.52394C11.7582 6.21249 12.0469 6.00053 12.3735 5.99988C12.7001 5.99923 12.9896 6.21004 13.0893 6.5211L13.7134 8.46956C13.8573 8.89769 14.0981 9.28658 14.4168 9.60587C14.7351 9.92471 15.1225 10.1655 15.5488 10.3096L17.4758 10.9178C17.7873 11.0162 17.9994 11.3049 18 11.6316C18.0006 11.9583 17.7897 12.2478 17.4785 12.3474L15.5501 12.9642C15.1233 13.1082 14.7354 13.3492 14.4168 13.6683C14.0981 13.9876 13.8573 14.3765 13.7134 14.8046L13.0974 16.7286C12.9986 17.0371 12.7128 17.2474 12.3888 17.2499C12.0648 17.2523 11.7759 17.0464 11.6724 16.7394L11.0234 14.8136L11.0229 14.8122C10.876 14.3829 10.6331 13.993 10.313 13.6723C9.99397 13.3528 9.60663 13.1103 9.18037 12.9631L7.26975 12.3468C6.96048 12.247 6.75064 11.9595 6.75 11.6345Z" fill="white"/>
<defs>
<linearGradient id="paint0_linear_126_14594" x1="-2.55738" y1="9.80769" x2="24.0036" y2="9.30453" gradientUnits="userSpaceOnUse">
<stop stop-color="#DAC9FF"/>
<stop offset="0.420407" stop-color="#A33FE1"/>
<stop offset="1" stop-color="#6743E1"/>
</linearGradient>
<linearGradient id="paint1_linear_126_14594" x1="4.72131" y1="10.9037" x2="18.0018" y2="10.6521" gradientUnits="userSpaceOnUse">
<stop stop-color="#DAC9FF"/>
<stop offset="0.420407" stop-color="#A33FE1"/>
<stop offset="1" stop-color="#6743E1"/>
</linearGradient>
<linearGradient id="paint2_linear_126_14594" x1="4.72131" y1="10.9037" x2="18.0018" y2="10.6521" gradientUnits="userSpaceOnUse">
<stop stop-color="#DAC9FF"/>
<stop offset="0.420407" stop-color="#A33FE1"/>
<stop offset="1" stop-color="#6743E1"/>
</linearGradient>
</defs>
</svg>
