<svg preserveAspectRatio="none" width="100%" height="100%" overflow="visible" style="display: block;" viewBox="0 0 16.6667 16.6667" fill="none" xmlns="http://www.w3.org/2000/svg">
<path id="Icon" d="M9.1315 0.593875C9.02575 0.241392 8.70133 0 8.33333 0C7.96533 0 7.64092 0.241392 7.53517 0.593875C6.93567 2.59205 6.15863 4.01702 5.08782 5.08782C4.01702 6.15863 2.59205 6.93567 0.593875 7.53517C0.241392 7.64092 0 7.96533 0 8.33333C0 8.70133 0.241392 9.02575 0.593875 9.1315C2.59205 9.731 4.01702 10.508 5.08782 11.5788C6.15863 12.6497 6.93567 14.0746 7.53517 16.0728C7.64092 16.4253 7.96533 16.6667 8.33333 16.6667C8.70133 16.6667 9.02575 16.4253 9.1315 16.0728C9.731 14.0746 10.508 12.6497 11.5788 11.5788C12.6497 10.508 14.0746 9.731 16.0728 9.1315C16.4253 9.02575 16.6667 8.70133 16.6667 8.33333C16.6667 7.96533 16.4253 7.64092 16.0728 7.53517C14.0746 6.93567 12.6497 6.15863 11.5788 5.08782C10.508 4.01702 9.731 2.59205 9.1315 0.593875Z" fill="url(#paint0_linear_0_406)"/>
<defs>
<linearGradient id="paint0_linear_0_406" x1="-4.16667" y1="-4.16667" x2="20.8333" y2="20.8333" gradientUnits="userSpaceOnUse">
<stop offset="0.3" stop-color="#8D59B1"/>
<stop offset="1" stop-color="#406CC4"/>
</linearGradient>
</defs>
</svg>
