<svg width="20" height="20" viewBox="0 0 20 20" fill="none" xmlns="http://www.w3.org/2000/svg">
<path fill-rule="evenodd" clip-rule="evenodd" d="M9.45817 1.80518C9.80933 1.68449 10.1907 1.68449 10.5418 1.80518L16.3752 3.81039C17.0482 4.04174 17.5 4.67488 17.5 5.38654V9.92706C17.5 12.2661 16.5426 13.9516 15.1562 15.2641C13.8459 16.5046 12.1293 17.4303 10.5266 18.2946L10.3957 18.3651C10.1487 18.4984 9.85125 18.4984 9.60433 18.3651L9.47342 18.2946C7.8707 17.4303 6.15411 16.5046 4.84375 15.2641C3.45742 13.9516 2.5 12.2661 2.5 9.92706V5.38654C2.5 4.67488 2.95187 4.04174 3.62487 3.81039L9.45817 1.80518ZM10 6.66665C8.84942 6.66665 7.91667 7.59939 7.91667 8.74998C7.91667 9.60431 8.43083 10.3385 9.16667 10.66V12.5C9.16667 12.9602 9.53975 13.3333 10 13.3333C10.4602 13.3333 10.8333 12.9602 10.8333 12.5V10.66C11.5692 10.3385 12.0833 9.60431 12.0833 8.74998C12.0833 7.59939 11.1506 6.66665 10 6.66665Z" fill="#5C6970"/>
</svg>
