<svg width="20" height="20" viewBox="0 0 20 20" fill="none" xmlns="http://www.w3.org/2000/svg">
<path d="M2.50195 4.9995C2.50195 3.61995 3.62031 2.50159 4.99987 2.50159H6.66654C8.0461 2.50159 9.16445 3.61995 9.16445 4.9995V6.66617C9.16445 8.04574 8.0461 9.16413 6.66654 9.16413H4.99987C3.62031 9.16413 2.50195 8.04574 2.50195 6.66617V4.9995Z" fill="#68737D"/>
<path d="M2.50195 13.3329C2.50195 11.9533 3.62031 10.835 4.99987 10.835H6.66654C8.0461 10.835 9.16445 11.9533 9.16445 13.3329V14.9995C9.16445 16.379 8.0461 17.4975 6.66654 17.4975H4.99987C3.62031 17.4975 2.50195 16.379 2.50195 14.9995V13.3329Z" fill="#68737D"/>
<path d="M10.8353 4.9995C10.8353 3.61995 11.9536 2.50159 13.3332 2.50159H14.9999C16.3795 2.50159 17.4978 3.61995 17.4978 4.9995V6.66617C17.4978 8.04574 16.3795 9.16413 14.9999 9.16413H13.3332C11.9536 9.16413 10.8353 8.04574 10.8353 6.66617V4.9995Z" fill="#68737D"/>
<path fill-rule="evenodd" clip-rule="evenodd" d="M14.1665 10.835C12.3267 10.835 10.8353 12.3264 10.8353 14.1662C10.8353 16.006 12.3267 17.4975 14.1665 17.4975C16.0064 17.4975 17.4978 16.006 17.4978 14.1662C17.4978 12.3264 16.0064 10.835 14.1665 10.835ZM12.4978 14.1662C12.4978 13.2445 13.245 12.4975 14.1665 12.4975C15.0882 12.4975 15.8353 13.2445 15.8353 14.1662C15.8353 15.0878 15.0882 15.835 14.1665 15.835C13.245 15.835 12.4978 15.0878 12.4978 14.1662Z" fill="#68737D"/>
</svg>
