<svg width="20" height="20" viewBox="0 0 20 20" fill="none" xmlns="http://www.w3.org/2000/svg">
<path fill-rule="evenodd" clip-rule="evenodd" d="M5.96788 2.5H14.0321C14.4714 2.49998 14.8504 2.49998 15.1625 2.52548C15.492 2.55239 15.8197 2.61183 16.135 2.77248C16.6054 3.01217 16.9878 3.39463 17.2275 3.86503C17.3882 4.18034 17.4476 4.50803 17.4745 4.83748C17.5 5.14962 17.5 5.52858 17.5 5.96787V14.0322C17.5 14.4714 17.5 14.8504 17.4745 15.1625C17.4476 15.492 17.3882 15.8197 17.2275 16.135C16.9878 16.6054 16.6054 16.9878 16.135 17.2275C15.8197 17.3882 15.492 17.4476 15.1625 17.4745C14.8504 17.5 14.4714 17.5 14.0322 17.5H5.96787C5.52858 17.5 5.14962 17.5 4.83748 17.4745C4.50803 17.4476 4.18034 17.3882 3.86503 17.2275C3.39463 16.9878 3.01217 16.6054 2.77248 16.135C2.61183 15.8197 2.55239 15.492 2.52548 15.1625C2.49998 14.8504 2.49998 14.4714 2.5 14.0322V5.96785C2.49998 5.52859 2.49998 5.14961 2.52548 4.83748C2.55239 4.50803 2.61183 4.18034 2.77248 3.86503C3.01217 3.39463 3.39463 3.01217 3.86503 2.77248C4.18034 2.61183 4.50803 2.55239 4.83748 2.52548C5.14961 2.49998 5.52862 2.49998 5.96788 2.5ZM13.5033 8.71425C13.8287 8.38883 13.8287 7.86119 13.5033 7.53575C13.1778 7.21032 12.6502 7.21032 12.3248 7.53575L9.164 10.6965L8.08656 9.61908C7.76112 9.29367 7.23348 9.29367 6.90805 9.61908C6.58261 9.9445 6.58261 10.4722 6.90805 10.7976L8.57475 12.4643C8.90017 12.7897 9.42775 12.7897 9.75325 12.4643L13.5033 8.71425Z" fill="#5C6970"/>
</svg>
