<svg width="20" height="20" viewBox="0 0 20 20" fill="none" xmlns="http://www.w3.org/2000/svg">
<path fill-rule="evenodd" clip-rule="evenodd" d="M10 1.66663C10.9205 1.66663 11.6667 2.41282 11.6667 3.33329C11.6667 4.25377 10.9205 4.99996 10 4.99996C9.07954 4.99996 8.33337 4.25377 8.33337 3.33329C8.33337 2.41282 9.07954 1.66663 10 1.66663ZM10 8.33329C10.9205 8.33329 11.6667 9.07946 11.6667 9.99996C11.6667 10.9205 10.9205 11.6666 10 11.6666C9.07954 11.6666 8.33337 10.9205 8.33337 9.99996C8.33337 9.07946 9.07954 8.33329 10 8.33329ZM10 15C10.9205 15 11.6667 15.7461 11.6667 16.6666C11.6667 17.5871 10.9205 18.3333 10 18.3333C9.07954 18.3333 8.33337 17.5871 8.33337 16.6666C8.33337 15.7461 9.07954 15 10 15Z" fill="#5C6970"/>
</svg>
