<svg width="20" height="20" viewBox="0 0 20 20" fill="none" xmlns="http://www.w3.org/2000/svg">
<path d="M1.767 5.17371C1.72788 5.33802 1.70596 5.50415 1.69235 5.67073C1.66685 5.98286 1.66685 6.3618 1.66687 6.80107V13.1987C1.66685 13.638 1.66685 14.017 1.69235 14.3291C1.71926 14.6586 1.7787 14.9863 1.93935 15.3016C2.17904 15.772 2.5615 16.1544 3.0319 16.3941C3.34721 16.5548 3.6749 16.6142 4.00435 16.6411C4.31646 16.6666 4.69539 16.6666 5.13461 16.6666H14.8656C15.3049 16.6666 15.684 16.6666 15.996 16.6411C16.3255 16.6142 16.6532 16.5548 16.9685 16.3941C17.439 16.1544 17.8214 15.772 18.061 15.3016C18.2217 14.9863 18.2811 14.6586 18.308 14.3291C18.3335 14.017 18.3335 13.638 18.3335 13.1988V6.80112C18.3335 6.36184 18.3335 5.98287 18.308 5.67073C18.2945 5.50414 18.2725 5.33802 18.2335 5.17371L11.5833 10.6148C10.6624 11.3682 9.33804 11.3682 8.41712 10.6148L1.767 5.17371Z" fill="#5C6970"/>
<path d="M17.284 3.79705C17.1841 3.72591 17.0788 3.6619 16.9685 3.60574C16.6532 3.44508 16.3255 3.38564 15.996 3.35873C15.684 3.33323 15.305 3.33324 14.8657 3.33325H5.13475C4.69549 3.33324 4.31648 3.33323 4.00435 3.35873C3.6749 3.38564 3.34721 3.44508 3.0319 3.60574C2.92166 3.6619 2.81626 3.72591 2.7164 3.79705L9.47254 9.32475C9.77945 9.57592 10.221 9.57592 10.5279 9.32475L17.284 3.79705Z" fill="#5C6970"/>
</svg>
