<svg width="20" height="20" viewBox="0 0 20 20" fill="none" xmlns="http://www.w3.org/2000/svg">
<path d="M2.50037 14.0004V6.00037C2.50037 5.54741 2.49964 5.15701 2.52576 4.83728C2.55269 4.50791 2.6122 4.17986 2.77283 3.86463C3.01244 3.39459 3.39459 3.01244 3.86463 2.77283C4.17986 2.6122 4.50791 2.55269 4.83728 2.52576C5.15701 2.49964 5.54741 2.50037 6.00037 2.50037H7.50037L7.58533 2.50427C8.00551 2.54698 8.33338 2.90193 8.33338 3.33338C8.33338 3.76482 8.00551 4.11977 7.58533 4.16248L7.50037 4.16638H6.00037C5.51991 4.16638 5.20914 4.1676 4.97302 4.18689C4.74681 4.20539 4.66265 4.23622 4.62146 4.2572C4.46471 4.33708 4.33708 4.46471 4.2572 4.62146C4.23622 4.66265 4.20539 4.74681 4.18689 4.97302C4.1676 5.20914 4.16638 5.51991 4.16638 6.00037V14.0004C4.16638 14.4806 4.16761 14.7907 4.18689 15.0267C4.20536 15.2528 4.23622 15.3371 4.2572 15.3783C4.31719 15.496 4.4043 15.5973 4.51013 15.6742L4.62146 15.7426L4.72791 15.7787C4.78232 15.7915 4.85981 15.8046 4.97302 15.8138C5.20914 15.8331 5.51991 15.8334 6.00037 15.8334H14.0004C14.4805 15.8334 14.7907 15.8331 15.0267 15.8138C15.2531 15.7954 15.3371 15.7635 15.3783 15.7426C15.535 15.6627 15.6627 15.535 15.7426 15.3783C15.7635 15.3371 15.7954 15.2531 15.8138 15.0267C15.8331 14.7907 15.8334 14.4805 15.8334 14.0004V12.5004C15.8334 12.0402 16.2063 11.6666 16.6664 11.6664C17.1266 11.6664 17.5004 12.0401 17.5004 12.5004V14.0004C17.5004 14.4531 17.5011 14.8428 17.475 15.1625C17.4481 15.4919 17.3886 15.8198 17.2279 16.1351C16.9883 16.6056 16.6056 16.9883 16.1351 17.2279C15.8198 17.3886 15.4919 17.4481 15.1625 17.475C14.8428 17.5011 14.4531 17.5004 14.0004 17.5004H6.00037C5.54741 17.5004 5.15701 17.5011 4.83728 17.475C4.50789 17.4481 4.17988 17.3885 3.86463 17.2279C3.39431 16.9883 3.01245 16.6053 2.77283 16.1351C2.61215 15.8198 2.55268 15.4919 2.52576 15.1625C2.49965 14.8428 2.50037 14.4531 2.50037 14.0004ZM17.5004 8.33338C17.5004 8.79361 17.1266 9.16638 16.6664 9.16638C16.2063 9.16621 15.8334 8.7935 15.8334 8.33338V5.34509L9.75623 11.4222L9.69275 11.4799C9.36544 11.7469 8.88262 11.7274 8.57752 11.4222C8.2523 11.0968 8.2523 10.5699 8.57752 10.2445L14.6556 4.16638H11.6664C11.2063 4.16621 10.8334 3.7935 10.8334 3.33338C10.8334 2.87325 11.2063 2.50054 11.6664 2.50037H16.6664C17.1266 2.50037 17.5004 2.87314 17.5004 3.33338V8.33338Z" fill="#5C6970"/>
</svg>
