<svg width="20" height="20" viewBox="0 0 20 20" fill="none" xmlns="http://www.w3.org/2000/svg">
<path d="M3.72021 0.434353C3.63719 0.175138 3.39595 -0.000538168 3.12376 1.2387e-06C2.85157 0.000543134 2.61103 0.177175 2.52904 0.436718L2.21892 1.41831C2.15519 1.60188 2.05071 1.76847 1.9134 1.90552C1.77528 2.04339 1.60758 2.14774 1.42316 2.2107L0.430794 2.53512C0.173396 2.61926 -0.000528805 2.8596 1.208e-06 3.1304C0.000533685 3.40121 0.1754 3.64086 0.433126 3.724L1.41048 4.03927C1.59368 4.1029 1.76018 4.20733 1.89742 4.3448C2.0356 4.4832 2.14087 4.65261 2.2044 4.83795L2.5369 5.8246C2.62313 6.08047 2.86393 6.25204 3.13393 6.24998C3.40393 6.24793 3.64209 6.07272 3.72441 5.81556L4.03973 4.83064C4.10181 4.6468 4.20534 4.47986 4.3422 4.34276C4.47898 4.20575 4.64537 4.10225 4.8284 4.04018L5.81541 3.72447C6.07473 3.64152 6.25052 3.40024 6.25 3.12798C6.24948 2.85572 6.07277 2.61512 5.81313 2.53317L4.82738 2.22201C4.64475 2.1599 4.47873 2.05653 4.3422 1.91977C4.20533 1.78267 4.10179 1.61571 4.03972 1.43185L3.72021 0.434353Z" fill="#5C6970"/>
<path d="M11.2241 4.37507C11.9006 4.37156 12.5708 4.50539 13.1941 4.76843C13.8174 5.03148 14.3808 5.41828 14.8503 5.90541C15.3197 6.39254 15.6854 6.96988 15.9253 7.60247C16.1031 8.07155 16.209 8.56378 16.2402 9.0625H15.9375C15.5923 9.0625 15.3125 9.34232 15.3125 9.6875V14.375C15.3125 14.7202 15.5923 15 15.9375 15H16.1615C15.9187 16.2047 15.2986 16.7992 14.7462 17.1127C14.4065 17.3055 14.0699 17.4036 13.8166 17.4529C13.7494 17.4659 13.689 17.4754 13.6369 17.4822C13.3746 16.7633 12.6847 16.25 11.875 16.25C10.8395 16.25 10 17.0895 10 18.125C10 19.1605 10.8395 20 11.875 20C12.6957 20 13.3932 19.4728 13.6473 18.7386C13.7519 18.7291 13.8912 18.7118 14.0551 18.6799C14.4045 18.612 14.877 18.4757 15.3632 18.1998C16.2711 17.6845 17.1579 16.7185 17.4312 15H17.5C18.8807 15 20 13.8807 20 12.5V11.5625C20 10.1818 18.8807 9.0625 17.5 9.0625H17.4922C17.4596 8.41241 17.3257 7.77017 17.0941 7.15933C16.7943 6.3686 16.3372 5.64693 15.7503 5.03801C15.1635 4.42909 14.4592 3.9456 13.6801 3.61679C12.901 3.28798 12.0633 3.1207 11.2176 3.12508C10.372 3.12947 9.53602 3.30541 8.76035 3.64227C7.98469 3.97914 7.28545 4.46991 6.70497 5.08487C6.66069 5.13178 6.61717 5.17934 6.57443 5.22753C6.93198 5.40969 7.25151 5.70547 7.44599 6.13008C7.50035 6.06636 7.55636 6.00394 7.61398 5.9429C8.07836 5.45092 8.63775 5.05831 9.25828 4.78882C9.87882 4.51933 10.5476 4.37857 11.2241 4.37507Z" fill="#5C6970"/>
<path d="M6.35101 6.76427C6.27386 6.49245 6.0631 6.32839 5.82466 6.27207C5.46161 6.18633 5.03439 6.3504 4.91691 6.76427L4.31254 8.68831C3.89715 10.1276 2.42939 10.5765 1.12651 10.975C0.919381 11.0383 0.716326 11.1004 0.522423 11.165C0.204873 11.2673 1.208e-06 11.5539 1.208e-06 11.8814C1.208e-06 12.2089 0.215116 12.4955 0.522423 12.5978L2.43797 13.2119C3.29843 13.5086 3.99499 14.2046 4.28181 15.0642L4.92716 16.9883C5.02959 17.2953 5.31641 17.5 5.64421 17.5C5.96176 17.5 6.24858 17.2851 6.35101 16.9781C6.42259 16.7808 6.49595 16.5354 6.57582 16.2682C6.82745 15.4265 7.1437 14.3686 7.67243 13.918C8.11626 13.3905 9.14316 13.0857 9.9802 12.8373C10.2637 12.7531 10.5254 12.6755 10.7353 12.5978C11.4216 12.4033 11.4216 11.3595 10.7353 11.165L8.80947 10.5612C7.95925 10.2746 7.26269 9.57869 6.97587 8.71901L6.35101 6.76427Z" fill="#5C6970"/>
</svg>
