<svg width="20" height="20" viewBox="0 0 20 20" fill="none" xmlns="http://www.w3.org/2000/svg">
<path d="M3.54687 4.72616C2.37131 6.16272 1.66602 7.99904 1.66602 10.0001C1.66602 12.0012 2.37133 13.8375 3.54693 15.2741L6.82442 11.9966C6.46012 11.4185 6.24935 10.7339 6.24935 10.0001C6.24935 9.26633 6.4601 8.58175 6.82437 8.00366L3.54687 4.72616Z" fill="#5C6970"/>
<path d="M4.72538 3.54765L8.00287 6.82514C8.58102 6.46085 9.26552 6.25008 9.99935 6.25008C10.7332 6.25008 11.4178 6.46085 11.9958 6.82515L15.2733 3.54766C13.8368 2.37206 12.0004 1.66675 9.99935 1.66675C7.99827 1.66675 6.16194 2.37206 4.72538 3.54765Z" fill="#5C6970"/>
<path d="M16.4518 4.72618L13.1743 8.00368C13.5386 8.58175 13.7493 9.26633 13.7493 10.0001C13.7493 10.7339 13.5386 11.4184 13.1743 11.9966L16.4518 15.2741C17.6274 13.8375 18.3327 12.0012 18.3327 10.0001C18.3327 7.99904 17.6274 6.16273 16.4518 4.72618Z" fill="#5C6970"/>
<path d="M15.2733 16.4526L11.9958 13.1751C11.4177 13.5393 10.7331 13.7501 9.99935 13.7501C9.2656 13.7501 8.58102 13.5393 8.00295 13.1751L4.72545 16.4526C6.162 17.6282 7.99831 18.3334 9.99935 18.3334C12.0004 18.3334 13.8367 17.6281 15.2733 16.4526Z" fill="#5C6970"/>
</svg>
