<svg width="20" height="20" viewBox="0 0 20 20" fill="none" xmlns="http://www.w3.org/2000/svg">
<path d="M11.4163 2.87911C10.5632 2.29258 9.43683 2.29258 8.58367 2.87911L3.58367 6.31661C2.90529 6.78299 2.5 7.55347 2.5 8.37671V15C2.5 16.3807 3.61929 17.5 5 17.5H7.08333C7.54357 17.5 7.91667 17.1269 7.91667 16.6666V13.75C7.91667 12.5994 8.84942 11.6666 10 11.6666C11.1506 11.6666 12.0833 12.5994 12.0833 13.75V16.6666C12.0833 17.1269 12.4564 17.5 12.9167 17.5H15C16.3808 17.5 17.5 16.3807 17.5 15V8.37671C17.5 7.55347 17.0947 6.78299 16.4163 6.31661L11.4163 2.87911Z" fill="#68737D"/>
</svg>
