<svg width="20" height="20" viewBox="0 0 20 20" fill="none" xmlns="http://www.w3.org/2000/svg">
<path d="M9.16602 2.5C12.8477 2.5 15.8327 5.48442 15.833 9.16602C15.833 10.7064 15.309 12.1241 14.4316 13.2529L17.2559 16.0771C17.5812 16.4026 17.5812 16.9305 17.2559 17.2559C16.9305 17.5813 16.4026 17.5812 16.0771 17.2559L13.2529 14.4316C12.1241 15.309 10.7065 15.833 9.16602 15.833C5.48441 15.8327 2.5 12.8477 2.5 9.16602C2.50036 5.48463 5.48463 2.50034 9.16602 2.5ZM9.16602 4.16602C6.4051 4.16636 4.16637 6.40511 4.16602 9.16602C4.16602 11.9272 6.40488 14.1657 9.16602 14.166C11.9274 14.166 14.166 11.9274 14.166 9.16602C14.1657 6.4049 11.9272 4.16602 9.16602 4.16602Z" fill="#5C6970"/>
</svg>
