<svg width="20" height="20" viewBox="0 0 20 20" fill="none" xmlns="http://www.w3.org/2000/svg">
<path d="M2.9165 5.83333C2.9165 3.99238 4.40888 2.5 6.24983 2.5C8.09078 2.5 9.58315 3.99238 9.58315 5.83333C9.58315 7.67428 8.09078 9.16667 6.24983 9.16667C4.40888 9.16667 2.9165 7.67428 2.9165 5.83333Z" fill="#68737D"/>
<path d="M10.4165 5.83333C10.4165 3.99238 11.9089 2.5 13.7498 2.5C15.5908 2.5 17.0832 3.99238 17.0832 5.83333C17.0832 7.67428 15.5908 9.16667 13.7498 9.16667C11.9089 9.16667 10.4165 7.67428 10.4165 5.83333Z" fill="#68737D"/>
<path d="M6.24962 10C8.6419 10 10.9112 11.6506 11.7558 14.6779C12.1974 16.2609 10.8473 17.5 9.46132 17.5H3.03791C1.65194 17.5 0.301851 16.2609 0.743465 14.6779C1.58805 11.6506 3.8573 10 6.24962 10Z" fill="#68737D"/>
<path d="M13.3618 14.2301C12.9553 12.773 12.2564 11.5405 11.3581 10.5851C12.1043 10.1988 12.9199 10 13.7502 10C16.1426 10 18.4118 11.6506 19.2564 14.6779C19.698 16.2609 18.3479 17.5 16.9619 17.5H12.7754C13.4155 16.6291 13.7077 15.4701 13.3618 14.2301Z" fill="#68737D"/>
</svg>
