<svg width="20" height="20" viewBox="0 0 20 20" fill="none" xmlns="http://www.w3.org/2000/svg">
<path d="M5 2.50008C3.65097 2.50008 2.42494 3.61971 2.60911 5.09968C3.40711 11.5122 8.48789 16.593 14.9004 17.391C16.3804 17.5752 17.5 16.3491 17.5 15.0001V13.9068C17.5 12.8028 16.7758 11.8295 15.7184 11.5122L14.4429 11.1296C13.6133 10.8808 12.7141 11.1074 12.1017 11.7198C11.8796 11.942 11.594 11.9559 11.4129 11.8438C10.0912 11.0261 8.97397 9.90883 8.15622 8.58725C8.04413 8.40608 8.05811 8.12047 8.28025 7.89834C8.89264 7.28594 9.11939 6.38674 8.87047 5.55721L8.48781 4.28171C8.17061 3.22426 7.1973 2.50008 6.09328 2.50008H5Z" fill="#5C6970"/>
<path d="M16.7834 8.41675C16.7834 5.35858 14.6414 3.21655 11.5832 3.21655C11.1414 3.21655 10.7834 2.85858 10.7834 2.41675C10.7834 1.97492 11.1414 1.61694 11.5832 1.61694C15.525 1.61694 18.383 4.47492 18.383 8.41675C18.383 8.85858 18.025 9.21655 17.5832 9.21655C17.1414 9.21655 16.7834 8.85858 16.7834 8.41675ZM13.2834 7.91675C13.2834 7.25401 12.746 6.71655 12.0832 6.71655C11.6414 6.71655 11.2834 6.35858 11.2834 5.91675C11.2834 5.47492 11.6414 5.11694 12.0832 5.11694C13.6296 5.11694 14.883 6.37035 14.883 7.91675C14.883 8.35858 14.525 8.71655 14.0832 8.71655C13.6414 8.71655 13.2834 8.35858 13.2834 7.91675Z" fill="#5C6970"/>
</svg>
