<svg width="20" height="20" viewBox="0 0 20 20" fill="none" xmlns="http://www.w3.org/2000/svg">
<path d="M9.16638 16.6663V10.8333H3.33337C2.87325 10.8333 2.50054 10.4603 2.50037 10.0002C2.50037 9.54001 2.87314 9.16626 3.33337 9.16626H9.16638V3.33325C9.16638 2.87301 9.54013 2.50024 10.0004 2.50024C10.4605 2.50042 10.8334 2.87312 10.8334 3.33325V9.16626H16.6664C17.1266 9.16626 17.5004 9.54001 17.5004 10.0002C17.5002 10.4603 17.1265 10.8333 16.6664 10.8333H10.8334V16.6663C10.8334 17.1264 10.4605 17.5001 10.0004 17.5002C9.54013 17.5002 9.16638 17.1265 9.16638 16.6663Z" fill="#5C6970"/>
</svg>
