<svg width="20" height="20" viewBox="0 0 20 20" fill="none" xmlns="http://www.w3.org/2000/svg">
<path d="M6.09394 2.5C7.19788 2.50008 8.17129 3.22483 8.48847 4.28223L8.87128 5.55762C9.12008 6.38708 8.89279 7.2861 8.28046 7.89844C8.05838 8.12056 8.04436 8.40674 8.15644 8.58789C8.97414 9.90933 10.0918 11.026 11.4133 11.8438C11.5943 11.9558 11.8797 11.9419 12.1018 11.7197C12.7142 11.1073 13.614 10.881 14.4435 11.1299L15.7189 11.5127C16.7763 11.83 17.5002 12.8032 17.5002 13.9072V15C17.5002 16.349 16.3806 17.5758 14.9006 17.3916C8.48819 16.5935 3.40755 11.512 2.60956 5.09961C2.42561 3.61989 3.65137 2.50015 5.00019 2.5H6.09394Z" fill="#5C6970"/>
<path d="M14.5832 2.5C15.0432 2.50009 15.416 2.87298 15.4162 3.33301V4.58398H16.6662C17.1264 4.58398 17.4992 4.95675 17.4992 5.41699C17.4992 5.87723 17.1264 6.25 16.6662 6.25H15.4162V7.5C15.4162 7.96018 15.0434 8.33291 14.5832 8.33301C14.123 8.33301 13.7492 7.96024 13.7492 7.5V6.25H12.4992C12.0392 6.24974 11.6662 5.87707 11.6662 5.41699C11.6662 4.95691 12.0392 4.58424 12.4992 4.58398H13.7492V3.33301C13.7494 2.87292 14.1231 2.5 14.5832 2.5Z" fill="#5C6970"/>
</svg>
