<svg width="20" height="20" viewBox="0 0 20 20" fill="none" xmlns="http://www.w3.org/2000/svg">
<path fill-rule="evenodd" clip-rule="evenodd" d="M5.97559 3.33335C6.31878 2.36236 7.24482 1.66669 8.33333 1.66669H11.6667C12.7552 1.66669 13.6812 2.36236 14.0244 3.33335H15C16.3807 3.33335 17.5 4.45265 17.5 5.83335V15.8334C17.5 17.2141 16.3807 18.3334 15 18.3334H5C3.61929 18.3334 2.5 17.2141 2.5 15.8334V5.83335C2.5 4.45265 3.61929 3.33335 5 3.33335H5.97559ZM7.5 4.16669V5.00002H12.5V4.16669C12.5 3.70645 12.1269 3.33335 11.6667 3.33335H8.33333C7.8731 3.33335 7.5 3.70645 7.5 4.16669ZM13.1004 9.42202C13.4196 9.75359 13.4095 10.2811 13.0779 10.6003L9.74461 13.809C9.41458 14.1267 8.89001 14.1184 8.57015 13.7905L6.90346 12.0818C6.5821 11.7524 6.58866 11.2248 6.91812 10.9034C7.24758 10.582 7.77517 10.5886 8.09654 10.9181L9.18518 12.0341L11.9221 9.39957C12.2537 9.08039 12.7812 9.09044 13.1004 9.42202Z" fill="#5C6970"/>
</svg>
