<svg width="20" height="20" viewBox="0 0 20 20" fill="none" xmlns="http://www.w3.org/2000/svg">
<path fill-rule="evenodd" clip-rule="evenodd" d="M5 2.5C3.61929 2.5 2.5 3.61929 2.5 5V15C2.5 16.3807 3.61929 17.5 5 17.5H15C16.3807 17.5 17.5 16.3807 17.5 15V5C17.5 3.61929 16.3807 2.5 15 2.5H5ZM4.16667 5C4.16667 4.53977 4.53977 4.16667 5 4.16667H15C15.4602 4.16667 15.8333 4.53977 15.8333 5V5.83333H4.16667V5ZM7.70833 10C7.70833 10.5753 7.24197 11.0417 6.66667 11.0417C6.09137 11.0417 5.625 10.5753 5.625 10C5.625 9.42467 6.09137 8.95833 6.66667 8.95833C7.24197 8.95833 7.70833 9.42467 7.70833 10ZM7.70833 13.3333C7.70833 13.9087 7.24197 14.375 6.66667 14.375C6.09137 14.375 5.625 13.9087 5.625 13.3333C5.625 12.758 6.09137 12.2917 6.66667 12.2917C7.24197 12.2917 7.70833 12.758 7.70833 13.3333ZM10 11.0417C10.5753 11.0417 11.0417 10.5753 11.0417 10C11.0417 9.42467 10.5753 8.95833 10 8.95833C9.42467 8.95833 8.95833 9.42467 8.95833 10C8.95833 10.5753 9.42467 11.0417 10 11.0417ZM11.0417 13.3333C11.0417 13.9087 10.5753 14.375 10 14.375C9.42467 14.375 8.95833 13.9087 8.95833 13.3333C8.95833 12.758 9.42467 12.2917 10 12.2917C10.5753 12.2917 11.0417 12.758 11.0417 13.3333ZM13.3333 11.0417C13.9087 11.0417 14.375 10.5753 14.375 10C14.375 9.42467 13.9087 8.95833 13.3333 8.95833C12.758 8.95833 12.2917 9.42467 12.2917 10C12.2917 10.5753 12.758 11.0417 13.3333 11.0417Z" fill="#5C6970"/>
</svg>
