<svg width="20" height="20" viewBox="0 0 20 20" fill="none" xmlns="http://www.w3.org/2000/svg">
<path d="M11.2513 5.41669C11.2513 3.34562 9.57242 1.66669 7.50134 1.66669C5.43027 1.66669 3.75134 3.34562 3.75134 5.41669C3.75134 7.48775 5.43027 9.16669 7.50134 9.16669C9.57242 9.16669 11.2513 7.48775 11.2513 5.41669Z" fill="#5C6970"/>
<path d="M14.5847 5.41669C14.5847 4.26609 13.6519 3.33335 12.5013 3.33335C12.0411 3.33335 11.668 2.96025 11.668 2.50002C11.668 2.03979 12.0411 1.66669 12.5013 1.66669C14.5724 1.66669 16.2513 3.34562 16.2513 5.41669C16.2513 7.48775 14.5724 9.16669 12.5013 9.16669C12.0411 9.16669 11.668 8.7936 11.668 8.33335C11.668 7.87312 12.0411 7.50002 12.5013 7.50002C13.6519 7.50002 14.5847 6.56728 14.5847 5.41669Z" fill="#5C6970"/>
<path d="M14.2744 16.7337C13.8373 17.2174 13.1858 17.5 12.5015 17.5H2.50148C1.81718 17.5 1.16563 17.2174 0.728594 16.7337C0.277181 16.234 0.060212 15.5156 0.310834 14.7647C1.24903 11.9537 4.16277 10 7.50148 10C10.8403 10 13.7539 11.9537 14.6922 14.7647C14.9428 15.5156 14.7257 16.234 14.2744 16.7337Z" fill="#5C6970"/>
<path d="M17.5014 17.5C18.1858 17.5 18.8373 17.2174 19.2743 16.7338C19.7257 16.2342 19.9428 15.5157 19.6922 14.7648C19.0273 12.7728 17.3646 11.2103 15.2797 10.4719C14.8458 10.3182 14.3696 10.5454 14.2159 10.9791C14.0623 11.4129 14.2894 11.8892 14.7233 12.0429C16.3896 12.6331 17.6298 13.8497 18.1112 15.2924C18.152 15.4146 18.1291 15.5152 18.0378 15.6164C17.9319 15.7334 17.7377 15.8334 17.5014 15.8334H17.0848C16.6246 15.8334 16.2514 16.2064 16.2514 16.6667C16.2514 17.1269 16.6246 17.5 17.0848 17.5H17.5014Z" fill="#5C6970"/>
</svg>
