<svg width="20" height="20" viewBox="0 0 20 20" fill="none" xmlns="http://www.w3.org/2000/svg">
<path d="M1.66602 5C1.66602 3.61929 2.78531 2.5 4.16602 2.5H15.8327C17.2134 2.5 18.3327 3.61929 18.3327 5V11.6667C18.3327 13.0474 17.2134 14.1667 15.8327 14.1667H4.16602C2.78531 14.1667 1.66602 13.0474 1.66602 11.6667V5Z" fill="#68737D"/>
<path d="M5.27063 17.4547C6.75651 16.9436 8.3461 16.6667 9.9996 16.6667C11.6531 16.6667 13.2427 16.9436 14.7285 17.4547C15.1638 17.6044 15.6379 17.3729 15.7876 16.9377C15.9373 16.5025 15.7058 16.0283 15.2706 15.8787C13.6132 15.3085 11.8405 15 9.9996 15C8.15864 15 6.386 15.3085 4.72852 15.8787C4.29331 16.0283 4.06186 16.5025 4.21156 16.9377C4.36126 17.3729 4.83542 17.6044 5.27063 17.4547Z" fill="#68737D"/>
</svg>
