<svg width="20" height="20" viewBox="0 0 20 20" fill="none" xmlns="http://www.w3.org/2000/svg">
<path d="M15.2438 3.57782C15.5693 3.25238 16.0971 3.25238 16.4225 3.57782C16.7478 3.90321 16.7478 4.43016 16.4225 4.75555L11.1774 9.99969L16.4225 15.2438C16.748 15.5693 16.748 16.0971 16.4225 16.4225C16.0971 16.748 15.5693 16.748 15.2438 16.4225L9.99969 11.1774L4.75555 16.4225C4.43016 16.7478 3.90321 16.7478 3.57782 16.4225C3.25238 16.0971 3.25238 15.5693 3.57782 15.2438L8.82098 9.99969L3.57782 4.75555C3.25238 4.43012 3.25238 3.90325 3.57782 3.57782C3.90325 3.25238 4.43012 3.25238 4.75555 3.57782L9.99969 8.82098L15.2438 3.57782Z" fill="#5C6970"/>
</svg>
