<svg width="32" height="32" viewBox="0 0 32 32" fill="none" xmlns="http://www.w3.org/2000/svg">
<path d="M14.8932 4C13.7887 4 12.8932 4.89543 12.8932 6V26.0013C12.8932 27.1059 13.7887 28.0013 14.8932 28.0013H17.1199C18.2244 28.0013 19.1199 27.1059 19.1199 26.0013V6C19.1199 4.89543 18.2244 4 17.1199 4H14.8932Z" fill="#5C6970"/>
<path d="M6 17.3347C4.89543 17.3347 4 18.23 4 19.3347V26.0013C4 27.1059 4.89543 28.0013 6 28.0013H8.22667C9.33124 28.0013 10.2267 27.1059 10.2267 26.0013V19.3347C10.2267 18.23 9.33124 17.3347 8.22667 17.3347H6Z" fill="#5C6970"/>
<path d="M21.7864 12.6667C21.7864 11.5621 22.6819 10.6667 23.7864 10.6667H26.0131C27.1177 10.6667 28.0131 11.5621 28.0131 12.6667V26.0013C28.0131 27.1059 27.1177 28.0013 26.0131 28.0013H23.7864C22.6819 28.0013 21.7864 27.1059 21.7864 26.0013V12.6667Z" fill="#5C6970"/>
</svg>
